/* XPM */
static char *door[] = {
/* columns rows colors chars-per-pixel */
"32 32 34 1 ",
"  c black",
". c #181818",
"X c gray18",
"o c #353535",
"O c #493518",
"+ c #523919",
"@ c #573C1B",
"# c #5B3C1C",
"$ c #6A431F",
"% c #634721",
"& c #674A22",
"* c #724520",
"= c #754622",
"- c #785327",
"; c #765729",
": c #7A5B2B",
"> c #7D5C2D",
", c #434343",
"< c #6F6F6F",
"1 c #80572A",
"2 c #82592C",
"3 c #896832",
"4 c #8F6B35",
"5 c #906D35",
"6 c #916D38",
"7 c #947338",
"8 c #9C773B",
"9 c #9F7C3D",
"0 c #A08340",
"q c #A58845",
"w c #AA8F47",
"e c #A78A49",
"r c #AF944D",
"t c #B09751",
/* pixels */
"twwwwttrrrttttt43tttttterttwwwwt",
"t64:44344434346$$44354433455:46t",
"t6-----52211&66$$66&12214:----6t",
"8;%    7&    4:@@:4    &7    %;8",
"o--    01    04==4q    10    --o",
"<4&    0-    04$$40    -0    &4<",
"r666qee03307ee6==4ee70330ee0664t",
"9:%%%%%:&&&%&;;@@;;&&&&&:&%%%%:9",
"t4:    e1    e6$$6e    1e    16t",
"e4-    q-    04$$40    -q    -3r",
"t41    0-    q4$$4q    -0    -4t",
"9::75557:77744;@@;55777:75557:;9",
"t56ee0e04000076==47q00040e0ee66t",
"r3&121141-1;-33==33;--1141111&4t",
"t6-34660174,X.====.X,46:06643-5t",
"o:&:;;:6&::.@6+@@@4+.::&6>;-:&:o",
"<3;34660;6666e6$$6e6666;06643-3<",
"t6470e003000006$$400000400e0746t",
"t63343446666:65$$66:66666633336t",
"8;%&&&&:&&%&&-:@@:;&%%&$:&&&&%;8",
"t3-33660233:4q4==606:33106443-3t",
"e4&444601644403%%303555106444&3w",
"t5:56660-3:66e6==6e66-4;0666416t",
"9:;55557:75444:@@:55557:74544;:9",
"t6666:467645666$$666453663:6666t",
"e3---1-4-=;%134$$341$--;5:1---4e",
"o5156640;346506$$4q4644;0366415o",
"<-&:;;;7&:::;5-@@;4;:::&7;;;:&;<",
"t6166360;334476==674433-0636516t",
"t3:eeee06000004$=30000060eeee:4r",
"t63335636634466==66643663643336t",
":@@@++@@@@@+O@+@@++O+@@@@@+@@@@:"
};
