/* XPM */
static char *pal7[] = {
/* columns rows colors chars-per-pixel */
"512 1 111 2 ",
"   c #585858",
".  c #5A5A5A",
"X  c gray36",
"o  c #5D5D5D",
"O  c gray37",
"+  c gray38",
"@  c #626262",
"#  c gray39",
"$  c #656565",
"%  c gray40",
"&  c DimGray",
"*  c #6C6C6C",
"=  c gray43",
"-  c gray44",
";  c #727272",
":  c #747474",
">  c #767676",
",  c #777777",
"<  c gray48",
"1  c #7B7B7B",
"2  c gray49",
"3  c #808080",
"4  c gray51",
"5  c gray52",
"6  c #868686",
"7  c #898989",
"8  c gray54",
"9  c #8B8B8B",
"0  c #8D8D8D",
"q  c #8E8E8E",
"w  c gray56",
"e  c #939393",
"r  c gray58",
"t  c #959595",
"y  c #979797",
"u  c #989898",
"i  c gray60",
"p  c #9A9A9A",
"a  c #9B9B9B",
"s  c gray61",
"d  c #9D9D9D",
"f  c #9F9F9F",
"g  c #A0A0A0",
"h  c gray63",
"j  c #A2A2A2",
"k  c #A4A4A4",
"l  c #A5A5A5",
"z  c gray66",
"x  c #A9A9A9",
"c  c #AAAAAA",
"v  c #ACACAC",
"b  c gray68",
"n  c #AEAEAE",
"m  c #B1B1B1",
"M  c #B2B2B2",
"N  c gray70",
"B  c gray71",
"V  c #B6B6B6",
"C  c #B7B7B7",
"Z  c gray73",
"A  c #BBBBBB",
"S  c #BCBCBC",
"D  c gray74",
"F  c gray",
"G  c gray75",
"H  c #C0C0C0",
"J  c gray76",
"K  c #C3C3C3",
"L  c gray77",
"P  c #C5C5C5",
"I  c #C6C6C6",
"U  c gray78",
"Y  c #C8C8C8",
"T  c #CBCBCB",
"R  c gray80",
"E  c #CDCDCD",
"W  c gray81",
"Q  c #D0D0D0",
"!  c gray82",
"~  c gray83",
"^  c #D5D5D5",
"/  c gray84",
"(  c #D8D8D8",
")  c gray85",
"_  c #DADADA",
"`  c gray86",
"'  c gainsboro",
"]  c #DDDDDD",
"[  c #DFDFDF",
"{  c gray88",
"}  c #E1E1E1",
"|  c gray89",
" . c #E4E4E4",
".. c gray90",
"X. c #E6E6E6",
"o. c gray91",
"O. c #E9E9E9",
"+. c gray92",
"@. c #ECECEC",
"#. c gray93",
"$. c #EFEFEF",
"%. c gray94",
"&. c #F1F1F1",
"*. c #F3F3F3",
"=. c #F4F4F4",
"-. c gray96",
";. c #F6F6F6",
":. c gray97",
">. c #F8F8F8",
",. c #F9F9F9",
"<. c #FEFEFE",
/* pixels */
"<.<.<.<.<.<.<.<.,.,.,.;.;.;.*.*.*.$.$.$.$.+.+.+.+.X.X.X.X.X.} } } } } [ [ ` ` ` ` ` / ` / ~ ~ ~ ~ W W W W T T T I I I I K K K K G G G G Z Z Z Z V V V V N N N n n n n v v z z z z h h h h h h f f p p p p y y y y y e y e y e y e e e e y e e e q q q q q q q q 9 9 9 9 9 9 9 9 9 9 9 9 9 6 9 9 4 6 6 6 4 6 6 6 4 4 4 4 4 4 4 4 1 2 2 2 2 2 2 2 1 1 1 1 1 1 1 1 > > > > > > > > : : : : : : : : = : = = : = = : = = = = = = = = % & & & & & & & % % % % % % % % # # # # # # # # # # O # O # # O O O X O X O X O                 X   X   X   X   X X X X X X X X O O O O O O O O # # O # # # # O # # # # O # # # # % # % % # % % % % % % % % % % % & & & & & & & & & & & & & & & = & = & = = & = = : = = : = = : = = : = = : = = : : : = : : = : : : : : : : : : > > > > > > > > > > > > 1 > > > 1 1 1 1 1 > 1 1 1 1 1 1 1 1 1 1 1 2 2 2 2 2 2 2 2 4 4 2 4 2 4 4 4 4 4 4 4 4 4 4 6 4 6 6 6 4 6 6 6 6 6 6 6 6 6 6 9 6 9 6 9 9 6 9 9 9 6 9 9 9 9 6 9 9 9 9 9 9 9 9 q q 9 q q 9 q q q q q q e q q q e e e e e e e e y e e e y e e e y y e y e y e y y y y y p y y p "
};
