/* XPM */
static char *scale1[] = {
/* columns rows colors chars-per-pixel */
"512 1 156 2 ",
"   c #7F0D4B",
".  c #780757",
"X  c #5E077A",
"o  c #66056E",
"O  c #71056A",
"+  c #A81D3C",
"@  c #BA3522",
"#  c #BB3623",
"$  c #BC3724",
"%  c #BD3825",
"&  c #BE3926",
"*  c #AD213B",
"=  c #AE223C",
"-  c #AF233D",
";  c #B42B32",
":  c #B52C33",
">  c #B62D34",
",  c #B72E35",
"<  c #B0243E",
"1  c #C13D26",
"2  c #C23E27",
"3  c #CF511F",
"4  c #C94723",
"5  c #CA4824",
"6  c #CC4A26",
"7  c #CD4B27",
"8  c #C44029",
"9  c #C5412A",
"0  c #C6422B",
"q  c #C7432C",
"w  c #CE4C28",
"e  c #CF4D29",
"r  c #D05220",
"t  c #D15321",
"y  c #D35523",
"u  c #D45624",
"i  c #D55725",
"p  c #D45B24",
"a  c #D55C25",
"s  c #D65D26",
"d  c #D75E27",
"f  c #D85F28",
"g  c #D86526",
"h  c #D96627",
"j  c #D96029",
"k  c #DA6728",
"l  c #DB6829",
"z  c #DC692A",
"x  c #DD6A2B",
"c  c #D9722D",
"v  c #DA732E",
"b  c #DB742F",
"n  c #D87D2A",
"m  c #8B0F4B",
"M  c #981247",
"N  c #A01745",
"B  c #DA8624",
"V  c #DB8725",
"C  c #DC8826",
"Z  c #DD8927",
"A  c #D98E29",
"S  c #DA8F2A",
"D  c #DB902B",
"F  c #DC912C",
"G  c #DA9B32",
"H  c #DBA539",
"J  c #DCAE3F",
"K  c #CEB942",
"L  c #BFCF62",
"P  c #BCD266",
"I  c #B7D86F",
"U  c #A6DF7E",
"Y  c #B4DA73",
"T  c #C6C352",
"R  c #C6C85A",
"E  c #391B97",
"W  c #3620A6",
"Q  c #3527AE",
"!  c #3131B5",
"~  c #3039BC",
"^  c #4A0F87",
"/  c #590881",
"(  c #41188E",
")  c #1C58CA",
"_  c #1D59CB",
"`  c #1E5ACC",
"'  c #1F5BCD",
"]  c #2148C1",
"[  c #204FC5",
"{  c #2150C6",
"}  c #2251C7",
"|  c #2352C8",
" . c #205CCE",
".. c #215DCF",
"X. c #225ED0",
"o. c #235FD1",
"O. c #1B65D0",
"+. c #1C66D1",
"@. c #1D67D2",
"#. c #1E68D3",
"$. c #1F69D4",
"%. c #1F6ED5",
"&. c #206FD6",
"*. c #2271D8",
"=. c #2372D9",
"-. c #2473DA",
";. c #2574DB",
":. c #2179DA",
">. c #227ADB",
",. c #247CDD",
"<. c #257DDE",
"1. c #267EDF",
"2. c #277FE0",
"3. c #5CDFBD",
"4. c #7EE5AD",
"5. c #67E0B7",
"6. c #74E4B6",
"7. c #78E4B0",
"8. c #2286D4",
"9. c #2387D5",
"0. c #2488D6",
"q. c #268AD8",
"w. c #278BD9",
"e. c #288CDA",
"r. c #2093D4",
"t. c #2194D5",
"y. c #2295D6",
"u. c #2396D7",
"i. c #2497D8",
"p. c #2598D9",
"a. c #2699DA",
"s. c #27A0D7",
"d. c #28A1D8",
"f. c #29A2D9",
"g. c #2AA3DA",
"h. c #2BA4DB",
"j. c #2CA5DC",
"k. c #2DA6DD",
"l. c #2CA8DB",
"z. c #2DA9DC",
"x. c #2EAADD",
"c. c #2FABDE",
"v. c #30ACDF",
"b. c #33B2DD",
"n. c #34B3DE",
"m. c #35B4DF",
"M. c #39BCD8",
"N. c #31ADE0",
"B. c #36B5E0",
"V. c #4CD5C5",
"C. c #55DBC3",
"Z. c #47CCD1",
"A. c #40C5D8",
"S. c #96E687",
"D. c #91E78C",
"F. c #86E89F",
/* pixels */
"l.z.z.z.v.v.v.N.b.n.n.n.m.m.B.B.M.M.M.M.M.M.M.M.A.A.A.A.A.A.A.A.Z.Z.Z.Z.Z.Z.Z.Z.V.V.V.V.V.V.V.V.C.C.C.C.C.C.C.C.3.3.3.3.3.3.3.3.5.5.5.5.5.5.5.5.6.6.6.6.6.6.6.6.7.7.7.7.7.7.7.7.4.4.4.4.4.4.4.4.F.F.F.F.F.F.F.F.D.D.D.D.D.D.D.D.S.S.S.S.S.S.S.S.U U U U U U U U Y Y Y Y Y Y Y Y I I I I I I I I P P P P P P P P L L L L L L L L R R R R R R R R T T T T T T T T K K K K K K K K J J J J J J J J H H H H H H H H G G G G G G G G F F D D S S S S C C C C V V V B n n n n n n n n v b b v v v v v l z z l k h h h f f f d d p p p i i i y r r 3 3 e e e 6 6 5 5 4 q q 0 0 2 2 2 2 & & & $ $ # # # > > > > : : ; ; < - - - - * * * + + + + + + + + N N N N N N N N M M M M M M M M m m m m m m m m                 . . . . . . . . O O O O O O O O o o o o o o o o X X X X X X X X / / / / / / / / ^ ^ ^ ^ ^ ^ ^ ^ ( ( ( ( ( ( ( ( E E E E E E E E W W W W W W W W Q Q Q Q Q Q Q Q ! ! ! ! ! ! ! ! ~ ~ ~ ~ ~ ~ ~ ~ ] ] ] ] ] ] ] ] [ [ { { { | { | _ _ ` ` ....X.X.+.O.+.+.$.#.$.$.%.&.&.*.*.;.;.;.:.:.>.<.<.<.2.2.9.9.9.9.q.q.e.e.t.t.t.i.i.p.p.p.d.d.d.d.h.h.j.j."
};
