/* XPM */
static char *scale2[] = {
/* columns rows colors chars-per-pixel */
"512 1 228 2 ",
"   c #5C0D3D",
".  c #7D062E",
"X  c #6D0538",
"o  c #68053C",
"O  c #750533",
"+  c #3E3C7D",
"@  c #3F3D7E",
"#  c #580D4E",
"$  c #461F5E",
"%  c #511553",
"&  c #43236C",
"*  c #412D74",
"=  c #403579",
"-  c #403E7F",
";  c #3E617F",
":  c #B21C0E",
">  c #B31D0F",
",  c #BC1F0C",
"<  c #A0181C",
"1  c #B41E10",
"2  c #B51F11",
"3  c #BD200D",
"4  c #BE210E",
"5  c #BF220F",
"6  c #8A062B",
"7  c #940B27",
"8  c #9D112B",
"9  c #C32907",
"0  c #C42A08",
"q  c #C52B09",
"w  c #C62C0A",
"e  c #C72D0B",
"r  c #C82E0C",
"t  c #C92F0D",
"y  c #CE350B",
"u  c #CA300E",
"i  c #CF360C",
"p  c #D0370D",
"a  c #D1380E",
"s  c #D63E0C",
"d  c #D73F0D",
"f  c #C02310",
"g  c #C12411",
"h  c #C22512",
"j  c #D33A10",
"k  c #D43B11",
"l  c #D8400E",
"z  c #D9410F",
"x  c #DE4809",
"c  c #DF490A",
"v  c #DA4210",
"b  c #DB4311",
"n  c #DC4412",
"m  c #E04A0B",
"M  c #E14B0C",
"N  c #E24C0D",
"B  c #E34D0E",
"V  c #E44E0F",
"C  c #E25704",
"Z  c #E35805",
"A  c #E45906",
"S  c #E55A07",
"D  c #E65B08",
"F  c #E75C09",
"G  c #E85D0A",
"H  c #ED630A",
"J  c #EE640B",
"K  c #EF650C",
"L  c #F0660D",
"P  c #F1670E",
"I  c #F2680F",
"U  c #E97305",
"Y  c #EA7406",
"T  c #EB7507",
"R  c #EC7608",
"E  c #ED7709",
"W  c #EE780A",
"Q  c #EF790B",
"!  c #F07C03",
"~  c #F17D04",
"^  c #F27E05",
"/  c #F37F06",
"(  c #F36910",
")  c #F48007",
"_  c #F58108",
"`  c #F68209",
"'  c #F58508",
"]  c #F68609",
"[  c #F7870A",
"{  c #F8880B",
"}  c #F9890C",
"|  c #FA8A0D",
" . c #FB8B0E",
".. c #F9910C",
"X. c #FA920D",
"o. c #FB930E",
"O. c #FC940F",
"+. c #FD9510",
"@. c #FE9611",
"#. c #FF9712",
"$. c #F79C10",
"%. c #F89D11",
"&. c #FA9F13",
"*. c #FBA014",
"=. c #FCA115",
"-. c #FDA216",
";. c #F8A718",
":. c #F9A819",
">. c #FBAA1B",
",. c #FCAB1C",
"<. c #FDAC1D",
"1. c #FEAD1E",
"2. c #F9B21A",
"3. c #FAB31B",
"4. c #FBB41C",
"5. c #FCB51D",
"6. c #FDB61E",
"7. c #FEB71F",
"8. c #FDBB1F",
"9. c #FEBC20",
"0. c #FFBD21",
"q. c #FFBE22",
"w. c #FCC827",
"e. c #F8D12C",
"r. c #FBD738",
"t. c #EFE23C",
"y. c #9CF87C",
"u. c #A4FA7D",
"i. c #A8FE79",
"p. c #BBFB73",
"a. c #DCF64B",
"s. c #DAF654",
"d. c #E3EF43",
"f. c #E6EC40",
"g. c #CCFA64",
"h. c #C6FC68",
"j. c #D0F863",
"k. c #413F80",
"l. c #3C4681",
"z. c #3D4782",
"x. c #3E4883",
"c. c #3F4984",
"v. c #3F6280",
"b. c #377185",
"n. c #387286",
"m. c #3A7488",
"M. c #3B7589",
"N. c #3C768A",
"B. c #3D778B",
"V. c #424081",
"C. c #434182",
"Z. c #404A85",
"A. c #414B86",
"S. c #424F84",
"D. c #435085",
"F. c #445186",
"G. c #465388",
"H. c #475489",
"J. c #48558A",
"K. c #406381",
"L. c #426583",
"P. c #436684",
"I. c #446785",
"U. c #3F8086",
"Y. c #408187",
"T. c #418986",
"R. c #428A87",
"E. c #418288",
"W. c #428389",
"Q. c #43848A",
"!. c #44858B",
"~. c #45868C",
"^. c #438B88",
"/. c #448C89",
"(. c #468E8B",
"). c #478F8C",
"_. c #45968D",
"`. c #46978E",
"'. c #47988F",
"]. c #489990",
"[. c #499A91",
"{. c #4A9B92",
"}. c #4B9C93",
"|. c #4BA48E",
" X c #4CA58F",
".X c #4DA690",
"XX c #4EA791",
"oX c #50A993",
"OX c #51AA94",
"+X c #51B291",
"@X c #52B392",
"#X c #53B493",
"$X c #54B594",
"%X c #55B695",
"&X c #56B796",
"*X c #55B997",
"=X c #57B897",
"-X c #56BA98",
";X c #57BB99",
":X c #58BC9A",
">X c #59BD9B",
",X c #5ABE9C",
"<X c #5BBF9D",
"1X c #5DC298",
"2X c #5EC399",
"3X c #5FC49A",
"4X c #65CC97",
"5X c #60C59B",
"6X c #62C79D",
"7X c #66CD98",
"8X c #63C89E",
"9X c #68CF9A",
"0X c #69D09B",
"qX c #6AD19C",
"wX c #6BD29D",
"eX c #6DD49C",
"rX c #6ED59D",
"tX c #6FD69E",
"yX c #74DE93",
"uX c #75DF94",
"iX c #70D79F",
"pX c #7EEA87",
"aX c #76E095",
"sX c #77E196",
"dX c #71D8A0",
"fX c #72D9A1",
"gX c #87ED89",
"hX c #91F384",
/* pixels */
"+X+X+X$X$X$X=X=X=X=X-X;X;X>X1X<X1X1X1X3X3X8X6X8X4X4X7X0X0X0XwXwXwXrXtXtXiXiXiXfXaXyXaXyXaXaXaXsXpXpXpXpXpXpXpXpXgXgXgXgXgXgXgXgXhXhXhXhXhXhXhXhXy.y.y.y.y.y.y.y.u.u.u.u.u.u.u.u.i.i.i.i.i.i.i.i.p.p.p.p.p.p.p.p.h.h.h.h.h.h.h.h.g.g.g.g.g.g.g.g.g.j.j.j.j.j.j.j.s.s.s.s.s.s.s.s.a.a.a.a.a.a.a.a.d.d.d.d.d.d.d.d.f.f.f.f.f.f.f.f.t.t.t.t.t.t.t.t.r.r.r.r.r.r.r.r.e.e.e.e.e.e.e.e.w.w.w.w.w.w.w.w.q.q.q.q.9.9.9.9.6.6.6.5.4.4.2.2.<.<.<.<.>.:.:.:.=.=.=.&.&.%.%.%.#.#.+.+.X.X..... . .{ { [ [ _ [ _ ) ) / / ! ! ! Q Q Q R R T T U I I P K K K H H G G G S S A A C B B B m c c c c b b b l l d d s j j j a i i i y u t r e e 0 0 9 h h h 5 5 5 , , 2 1 1 1 > > > : < < < < < < < < 8 8 8 8 8 8 8 8 7 7 7 7 7 7 7 7 6 6 6 6 6 6 6 6 . . . . . . . . O O O O O O O O X X X X X X X X o o o o o o o o                 # # # # # # # # % % % % % % % % $ $ $ $ $ $ $ $ & & & & & & & & * * * * * * * * + * + * = = = = + + + V.V.V.V.V.z.z.z.x.x.A.A.A.D.A.D.F.G.H.H.J.; ; ; L.L.P.I.I.b.n.n.n.N.N.N.N.E.U.E.E.W.W.~.~.T.T.R.R./.).).)._._.`.`.].[.[.[..X X X.XXXoXoXOX"
};
