/* XPM */
static char *pal7[] = {
/* columns rows colors chars-per-pixel */
"512 1 133 2 ",
"   c black",
".  c #020202",
"X  c gray1",
"o  c #040404",
"O  c gray2",
"+  c #060606",
"@  c #070707",
"#  c gray3",
"$  c #090909",
"%  c gray4",
"&  c #0B0B0B",
"*  c gray5",
"=  c #0E0E0E",
"-  c gray6",
";  c #101010",
":  c gray7",
">  c #151515",
",  c #161616",
"<  c gray9",
"1  c #181818",
"2  c #191919",
"3  c gray10",
"4  c gray11",
"5  c #1D1D1D",
"6  c #1E1E1E",
"7  c gray12",
"8  c #202020",
"9  c gray13",
"0  c #232323",
"q  c gray14",
"w  c gray15",
"e  c #272727",
"r  c #282828",
"t  c #2A2A2A",
"y  c gray17",
"u  c #2C2C2C",
"i  c #2D2D2D",
"p  c gray18",
"a  c #2F2F2F",
"s  c #313131",
"d  c #323232",
"f  c gray20",
"g  c #353535",
"h  c #373737",
"j  c #393939",
"k  c #3A3A3A",
"l  c gray23",
"z  c #3C3C3C",
"x  c #3E3E3E",
"c  c #3F3F3F",
"v  c gray25",
"b  c #414141",
"n  c gray26",
"m  c #444444",
"M  c #464646",
"N  c gray28",
"B  c #484848",
"V  c #494949",
"C  c gray29",
"Z  c #4B4B4B",
"A  c gray30",
"S  c gray31",
"D  c #505050",
"F  c #515151",
"G  c gray32",
"H  c #555555",
"J  c #565656",
"K  c gray34",
"L  c #585858",
"P  c gray35",
"I  c #5A5A5A",
"U  c #5B5B5B",
"Y  c #606060",
"T  c gray38",
"R  c gray39",
"E  c #646464",
"W  c #656565",
"Q  c gray40",
"!  c #686868",
"~  c DimGray",
"^  c #6A6A6A",
"/  c gray42",
"(  c #6C6C6C",
")  c #6D6D6D",
"_  c gray43",
"`  c #6F6F6F",
"'  c #717171",
"]  c #727272",
"[  c gray45",
"{  c #747474",
"}  c gray46",
"|  c #767676",
" . c #777777",
".. c gray47",
"X. c #797979",
"o. c gray48",
"O. c #7B7B7B",
"+. c gray50",
"@. c #808080",
"#. c #818181",
"$. c gray51",
"%. c #848484",
"&. c gray52",
"*. c gray54",
"=. c #8B8B8B",
"-. c gray55",
";. c #8D8D8D",
":. c #8E8E8E",
">. c gray56",
",. c #909090",
"<. c gray58",
"1. c #959595",
"2. c #979797",
"3. c #989898",
"4. c gray60",
"5. c #9A9A9A",
"6. c gray62",
"7. c #A4A4A4",
"8. c #AAAAAA",
"9. c gray69",
"0. c #B7B7B7",
"q. c gray74",
"w. c gray76",
"e. c #C8C8C8",
"r. c #CECECE",
"t. c gray83",
"y. c gray85",
"u. c #E1E1E1",
"i. c #E6E6E6",
"p. c #EAEAEA",
"a. c gray95",
"s. c gray97",
"d. c #FDFDFD",
/* pixels */
"d.d.d.d.d.d.d.d.s.s.s.s.s.s.s.s.a.a.a.a.a.a.a.a.p.p.p.p.p.p.p.p.i.i.i.i.i.i.i.i.u.u.u.u.u.u.u.u.y.y.y.y.y.y.y.y.t.t.t.t.t.t.t.t.r.r.r.r.r.r.r.r.e.e.e.e.e.e.e.e.w.w.w.w.w.w.w.w.q.q.q.q.q.q.q.q.0.0.0.0.0.0.0.0.9.9.9.9.9.9.9.9.8.8.8.8.8.8.8.8.7.7.7.7.7.7.7.7.6.6.6.6.6.6.6.6.5.5.5.2.2.2.2.,.,.,.>.>.>.*.*.*.&.&.%.%.+.+.+.+.o.o. . . . .] ]  .] ] ] _ _ / / / / Q Q R R R U U U U I I J J J F F F S S V V V V V N N m m c c m c c j j j h h d d d p p y y y e e e 0 0 0 6 6 6 6 6 6 2 < < < : : - - - % % % @ @ @ @ X X X X X X X X X X X X X X @ X @ X @ X % % % % % % % % - - - - % - - - : < : < < : < : 2 2 2 2 2 2 2 2 6 2 6 2 6 6 2 6 0 e 0 0 0 e 0 0 e y e e e y e e y y y y y y y y p p p p p p p p h d h h d h d h j j c j j c j j m c c m c c c c N m m m m m m m N N N V N V N V S V S S V S S V F F F J F F F F I J J J J J J J I I I I I I I I R U R U R R U R Q Q Q R Q Q R Q / Q / Q / / Q / _ _ _ _ _ _ _ _ ] ] ] ] ] ] ] ]  . .]  . . . .] o.o.o.+.o.o.o.o.%.+.+.%.+.+.+.+.&.&.&.&.&.&.&.&.*.*.*.*.*.*.*.*.>.>.>.>.>.*.>.>.,.2.,.2.,.2.2.,."
};
