/* XPM */
static char *scale6[] = {
/* columns rows colors chars-per-pixel */
"512 1 144 2 ",
"   c #FA0600",
".  c #FE0C01",
"X  c #FF010D",
"o  c #FE1E02",
"O  c #FF0012",
"+  c #FF2206",
"@  c #FF2509",
"#  c #FF3400",
"$  c #FF3C01",
"%  c #FE0022",
"&  c #FE002A",
"*  c #FF003B",
"=  c #FC4D01",
"-  c #FE5406",
";  c #FF5608",
":  c #FD6500",
">  c #FF6B00",
",  c #FF7C00",
"<  c #FF0042",
"1  c #FD0154",
"2  c #FD0059",
"3  c #FF0165",
"4  c #FF006A",
"5  c #FE0377",
"6  c #FE027B",
"7  c #05FF01",
"8  c #15FF00",
"9  c #1CFF00",
"0  c #01FF11",
"q  c #00FF1E",
"w  c #25FF00",
"e  c #2AFF01",
"r  c #34FF04",
"t  c #3AFF05",
"y  c #00FF22",
"u  c #00FE2C",
"i  c #00FD31",
"p  c #00FE3E",
"a  c #4CFF05",
"s  c #51FF07",
"d  c #65FE00",
"f  c #6AFE02",
"g  c #75FF00",
"h  c #7CFF00",
"j  c #00FD43",
"k  c #00FF54",
"l  c #00FF65",
"z  c #00FF6D",
"x  c #FF8204",
"c  c #FE9200",
"v  c #FF9B06",
"b  c #FF9E08",
"n  c #FBAD00",
"m  c #FDB403",
"M  c #FBBF00",
"N  c #82FF00",
"B  c #8CFF00",
"V  c #94FF00",
"C  c #9AFF02",
"Z  c #ACFF00",
"A  c #B1FE00",
"S  c #FEC301",
"D  c #FFC805",
"F  c #FEDB01",
"G  c #C6FF03",
"H  c #D4FF03",
"J  c #DBFF06",
"K  c #FFE105",
"L  c #FEEF00",
"P  c #E6FE00",
"I  c #EBFF00",
"U  c #FEF300",
"Y  c #F2FF03",
"T  c #FFF903",
"R  c #1C00FE",
"E  c #0012F7",
"W  c #0014F9",
"Q  c #001AFE",
"!  c #2200FC",
"~  c #2B00FD",
"^  c #3600FF",
"/  c #3C01FD",
"(  c #002BFE",
")  c #0330FF",
"_  c #023FFC",
"`  c #4302FF",
"'  c #4902FF",
"]  c #6400FF",
"[  c #7601FF",
"{  c #7A00FF",
"}  c #0344FF",
"|  c #044AFF",
" . c #0057F7",
".. c #045CFC",
"X. c #006FFF",
"o. c #0474FF",
"O. c #FE0084",
"+. c #FE0089",
"@. c #FF0093",
"#. c #FF009D",
"$. c #FF00A1",
"%. c #FF01B4",
"&. c #FF00B9",
"*. c #8700FF",
"=. c #8C01FF",
"-. c #9F00F5",
";. c #9401FF",
":. c #A300F6",
">. c #AB00FA",
",. c #BE00FC",
"<. c #FF00C7",
"1. c #FF00CC",
"2. c #FF01DB",
"3. c #C300FE",
"4. c #D401FF",
"5. c #FF00E3",
"6. c #E603FB",
"7. c #EC04FE",
"8. c #FF00FD",
"9. c #02FD8C",
"0. c #02FB93",
"q. c #02FF9E",
"w. c #02FFA3",
"e. c #00FFAF",
"r. c #00FFB3",
"t. c #008BFF",
"y. c #0291FF",
"u. c #009EFF",
"i. c #00A3FF",
"p. c #00A9FF",
"a. c #01B4FC",
"s. c #04BCFF",
"d. c #03FFC4",
"f. c #03FFCA",
"g. c #02FFDE",
"h. c #00CEF9",
"j. c #03D4FE",
"k. c #02FFE3",
"l. c #02FDEC",
"z. c #00E7FC",
"x. c #01ECFF",
"c. c #02FCF1",
"v. c #05F0FF",
"b. c #03FAFD",
/* pixels */
"E E W W Q Q Q Q ( ( ( ( ( ) ) ) _ _ _ } } } | |  . . ...........o.o.X.o.o.o.o.o.t.t.t.t.t.t.y.y.u.u.i.i.i.p.p.p.a.a.a.a.s.s.s.s.h.h.h.h.j.j.j.j.z.z.z.v.v.v.v.v.b.b.b.b.b.b.b.b.c.c.c.k.k.k.k.g.f.f.f.f.d.d.d.d.r.r.r.r.e.e.e.e.w.w.w.w.w.w.w.q.0.0.0.0.0.9.9.9.z z z z z l l l k k k k k k k k j j j j j p p p i i i u y y q q 0 0 0 0 0 0 0 0 7 7 7 7 7 7 7 7 8 8 8 9 w w w e w w e e r r t t a a a a s s s s d d d d f f f f g g g h h N N N B B B V V V C C Z Z Z Z Z Z Z A G G G G G G G G H H H H J J J J P P P I Y I Y Y T T T U U L L L K K F K F F F F S S S S S S S M m m m m m n n n b b v v c c c c x x x , , , , , > > > > > : : : ; ; - - = = = = $ $ $ $ # # # # @ @ @ + + o o o . . . . . .     X X X X O O O O % % % % % & & & * * * * < < < < 1 1 1 1 1 2 2 2 3 3 3 3 4 4 4 4 5 5 6 6 O.O.O.+.@.@.@.@.#.#.$.$.%.%.%.%.%.%.%.&.<.<.<.<.1.1.1.1.2.2.2.5.2.5.5.5.8.8.8.8.8.8.8.8.7.7.7.7.7.7.6.6.4.4.4.4.4.4.4.4.3.3.3.3.3.,.,.,.>.>.>.>.:.:.:.-.;.;.;.=.=.=.=.*.{ { { { { { { [ ] ] ] ] ] ] ] ] ' ' ' ` / / / / ^ ^ ^ ~ ~ ~ ! ! ! ! R R R R R R "
};
