/* XPM */
static char *yolo[] = {
/* columns rows colors chars-per-pixel */
"54 84 116 2",
"   c #245989",
".  c #245D90",
"X  c #266195",
"o  c #2A6396",
"O  c #27659C",
"+  c #29669D",
"@  c #2B689E",
"#  c #316A9D",
"$  c #296BA4",
"%  c #2C6EA9",
"&  c #316FA4",
"*  c #2D72AD",
"=  c #3571A7",
"-  c #3273AB",
";  c #3C78AE",
":  c #2F74B0",
">  c #3176B2",
",  c #3279B6",
"<  c #3B7BB4",
"1  c #357CBA",
"2  c #3A7FB9",
"3  c #416F99",
"4  c #527A9E",
"5  c #4778A4",
"6  c #437CAF",
"7  c #517EA7",
"8  c #447FB3",
"9  c #3780BF",
"0  c #3C82BD",
"q  c #4F80AD",
"w  c #5482AD",
"e  c #5885AF",
"r  c #5D88AE",
"t  c #4581B6",
"y  c #4283BD",
"u  c #4A86BB",
"i  c #5487B5",
"p  c #5588B6",
"a  c #5D8BB4",
"s  c #598BBA",
"d  c #6D90AF",
"f  c #638DB3",
"g  c #6E92B3",
"h  c #6191BC",
"j  c #6995BC",
"k  c #7296B8",
"l  c #7299BB",
"z  c #7C9DBA",
"x  c #3A83C4",
"c  c #3C87C8",
"v  c #3D88CA",
"b  c #4386C0",
"n  c #4B8AC3",
"m  c #438CCB",
"M  c #498ECD",
"N  c #4C91CD",
"B  c #5591C5",
"V  c #5E94C5",
"C  c #5295CF",
"Z  c #5395D0",
"A  c #5B9AD4",
"S  c #6395C1",
"D  c #6E9BC3",
"F  c #6A9ECC",
"G  c #749DC3",
"H  c #7CA2C4",
"J  c #74A3CE",
"K  c #7CA7CE",
"L  c #83A4BF",
"P  c #80A3C4",
"I  c #85AACC",
"U  c #92ACC2",
"Y  c #94B0C7",
"T  c #96B2CA",
"R  c #9AB6CF",
"E  c #87ADD0",
"W  c #8AB2D7",
"Q  c #96B7D3",
"!  c #98B7D3",
"~  c #9ABAD5",
"^  c #9ABCDA",
"/  c #A5BED3",
"(  c #A9BFD2",
")  c #9FC1DE",
"_  c #ACC3D6",
"`  c #A7C3DA",
"'  c #ADC5D9",
"]  c #AFC9DF",
"[  c #B5C7D7",
"{  c #B3C9DB",
"}  c #BACCDB",
"|  c #AAC8E1",
" . c #B5CCE0",
".. c #B8D0E5",
"X. c #C2CFDC",
"o. c #C2D1DE",
"O. c #C3D3E2",
"+. c #CDD9E4",
"@. c #C2D7EA",
"#. c #CEDEEC",
"$. c #D2DDE6",
"%. c #D3DFEB",
"&. c #D2E1EE",
"*. c #DDE6EE",
"=. c #D3E2F0",
"-. c #DCE7F1",
";. c #DDE9F3",
":. c #E0E8EF",
">. c #E5ECF2",
",. c #E8EFF5",
"<. c #ECF2F6",
"1. c #EDF3F8",
"2. c #F1F1F1",
"3. c #F3F6F9",
"4. c #F4F8FB",
"5. c #FFFFFF",
/* pixels */
"5.5.5.5.,.h O O O O O O O O O O O O O O O O O O O O O O O O O O O O O O O O O O O O O O O O O O h 3.5.5.5.5.",
"5.5.5.s - m A A A A A A A A A A A A A A A A A A A A A A A A A A A A A A A A A A A A A A A A A A n % p 5.5.5.",
"5.5.s y C m v v v v v v v v v v v v v v v v v v v v v v v v v v v v v v v v v v v v v v v v v v m Z < p 5.5.",
"5.-.% M v v c v c v c v v v v v v v v v v v v v v v v v c v v v v v v v v v v v v v v v v v v v v m N % ,.5.",
"5.i b c c c c c c c c c v c c c c c c v c c c c c c c c c c c c c c c c c c c c c c c c c c c c c c v b p 5.",
"5.O b c c c x c x c c c c c c c c v x v c c x m x c c v c c c v c c c c c c c c c c x v c c c c c c x m O 5.",
"5.O c c c x c x c x x c c x c c c x c x x x c x c x c x x x c x x x c x x c c x c x c x c x c x x x c x O 5.",
"5.O x c x c x c x c c x x c x x x x x c x c x x x c x c x c c x x c x x c x c x x c x c x x x x x c x c O 5.",
"5.O x x x x c x x x x x x x x x x x x x x x x x x 9 x x x x x x x x x x x x x x x x x x x x x x x x x x O 5.",
"5.O x x x x x x x x x x x x x x x x x x x x x x x x x x x x x x x x x x x x x x x x x x x x x x x x x x O 5.",
"5.O x 9 x 9 x 1 x 9 x x 9 x 1 x x 9 x x x 9 x 9 x 9 x x 1 x x x x 9 x x x 9 x x x 9 x 9 x x x 9 9 x x x O 5.",
"5.O x x 1 x x x 9 x 9 x 9 x 9 x 9 x 9 x 9 x x x 9 x > x 9 x x x 9 x 9 x x 9 9 9 9 x 9 x 9 x 9 x 9 9 9 x O 5.",
"5.O 9 1 9 9 x 9 x 9 x x x 1 x 1 9 9 9 9 x 9 x 9 9 , P 9 x 1 x 1 9 9 9 9 x 9 x 9 x 9 9 9 9 9 9 9 x 9 x 1 O 5.",
"5.O 1 x x 1 1 9 1 9 1 1 1 x 1 x 9 9 9 9 9 9 1 9 9 j >., 9 9 1 x 9 9 9 9 9 9 9 9 9 9 9 9 9 9 9 9 1 9 1 x O 5.",
"5.O 9 1 1 x 1 x 1 x 1 x 1 x 1 x 9 9 9 9 1 9 9 9 1 ' 5.h x 1 9 9 9 9 9 9 1 9 9 1 9 1 9 9 9 1 9 9 x 1 9 1 O 5.",
"5.$ 1 9 1 x 1 1 1 1 1 x 1 1 1 1 1 9 1 1 9 1 1 1 < 3.5._ 9 1 1 1 1 9 1 1 9 1 1 9 1 9 1 9 1 9 9 1 1 9 1 9 O 5.",
"5.O 1 1 1 1 1 1 1 1 1 1 9 1 1 1 1 1 1 1 1 2 1 1 G 5.-.3.> 1 1 1 1 1 1 1 1 1 1 1 1 1 1 1 1 1 1 1 1 1 1 1 O 5.",
"5.O 1 1 1 1 1 1 1 1 1 1 1 1 1 1 1 - o o o O o O O.,.F 5.k o o o o o & , 1 1 1 1 1 1 1 1 1 1 1 1 1 1 1 1 O 5.",
"5.O 1 1 1 , 1 1 1 1 1 1 1 1 1 1 1 W 4.5.5.5.5.5.5.^ 1 1.5.5.5.5.5.5.=.n 1 1 1 1 1 1 1 , 1 1 1 , 1 1 1 1 O 5.",
"5.O , 1 1 1 1 1 , 1 , 1 1 , , 1 1 , B ;.5.2.R ^ ^ n 1 J ^ ~ } 5.5.) 1 1 , 1 1 , 1 1 1 , 1 1 1 1 , 1 1 1 O 5.",
"5.O , , , , , , , , , , , 1 , , 1 , , 2 | 5.%.5 - , , , $ L 4.<.F , , , , , , , , , , 1 , 1 , , , 1 , , O 5.",
"5.O , , , , , 1 , , , , , , , , , , , , , J 1.3.S 1 , , { 5.@.y , , , , , , , , , , , , , , , , , , , , O 5.",
"5.O , , > , , , , , , , , , , > , , , , , , P 5.S $ o - ] 4.- , , , , , , , , , , , , , , > , > , , , , O 5.",
"5.O > , , , > , > , > , > , , , , > > , > , } >.o T :.w j 5.j , : , , , , , : , : , , , , , > , > , > , O 5.",
"5.O > > , > > > > , > > , > , > > > > > , - 4.} $.5.3.5.Y 3.' , , : > > > > , > , > > > , > , > > > , > O 5.",
"5.O > > : > > > > > > > : > : > > > > > > l 5.5.3.J 2  .5.5.2.- : > > > > > > > > > > > > > > > > > > > O 5.",
"5.O > : > : : : > : > : > : : : : : > > : { 5.&.u : > : K 4.5.h > : > : > : > : > : > : > : > : > : > : O 5.",
"5.O * > : > : > * > * > : > : > : : : - - 4.~ > * > : : - u &.` : : : > * > > * * > * > * > * > * > * > O 5.",
"5.O : * : * : * : * : * : * : * : * : * B h : * : * : * : * , I : * : * * : : * : * : * : * : * - : : * O 5.",
"5.O : - * : * * : - * * * : * * * : * * : - * * : * * * : - * * * * : * : - : * * * * > * : * * : * : * O 5.",
"5.O * % * * * * * * * * * * * * * * * * * * * * * * * * * * * * * * * * * * * * * * * * * * * * * * * * O 5.",
"5.O * * * * * * * * * * * * * * * * * * * * * * * * * * * * * * * * * * % * * * * * * * * * * * % * * * O 5.",
"5.O * % % * * % % * * % * % % * * % % * % * * % % * * % * % % * * * * % * * % * % * % % * % % * % % * % O 5.",
"5.O % % % % % % % % % % % * % % % * % % % % % % % % % % % * % % % % % % % % % % % % % * % * % % % * % * O 5.",
"5.O % % % % % % % % % % % % % % % % * % % % % % % % % % % % % % % % % % % % % % % % % % % % % % % % % % O 5.",
"5.q $ % % % % % % % % % % % % % % $ $ % % % % % % % % % % % % % % % % % % % % % % % % % % % % % $ % % $ q 5.",
"5._ + % $ % $ % % $ % $ $ $ % $ $ $ $ % $ $ % % % % $ $ % $ % $ % $ % $ $ $ % $ % $ % $ $ % $ % $ % % O } 5.",
"5.5.7 $ $ % $ $ $ $ $ % % $ $ $ $ % $ $ % $ $ $ $ $ $ % $ $ $ $ $ $ $ $ $ % $ $ $ $ $ $ $ $ $ $ $ $ $ w 5.5.",
"5.5.<.q O $ O $ $ $ $ $ $ $ $ $ $ $ $ $ $ O $ $ $ $ $ $ $ $ $ $ $ $ $ $ $ $ $ $ $ $ $ $ $ $ $ $ $ + q 2.5.5.",
"5.5.5.2.O.i O O O O O O O O O O O O O O O O O O O O O O O O O O O O O O O O O O O O O O O O O O i o.2.5.5.5.",
"5.5.5.5.5.2.2.2.<.2.2.2.2.2.2.2.<.2.2.2.2.2.2.2.2.2.2.2.2.2.2.2.2.2.2.2.<.2.2.2.2.2.2.2.2.2.2.2.2.5.5.5.5.5.",
"5.5.5.5.5.5.5.5.5.5.5.5.5.5.5.5.5.5.5.5.5.5.5.5.5.5.5.5.5.5.5.5.5.5.5.5.5.5.5.5.5.5.5.5.5.5.5.5.5.5.5.5.5.5.",
"5.5.5.5.*.i . . . . . .   . . .   . . . . .   . . . . .   . . . . .   . . . . . . .   . . . . . e <.5.5.5.5.",
"5.5.5.w @ t B B B B B B B B B B B B B B B B B B B B B B B B B B B B B B B B B B B B B B B B B B 8 + e 5.5.5.",
"5.5.w ; n 0 1 , 1 1 1 1 1 1 1 1 1 1 1 1 1 1 1 1 1 1 1 1 1 1 1 1 1 1 1 1 1 1 1 1 1 1 1 1 1 1 1 1 0 n = w 5.5.",
"5.*.@ y 1 1 1 2 1 1 1 1 1 1 1 1 1 1 1 1 1 1 1 1 1 1 , 1 , 1 1 1 , 1 1 1 1 1 1 1 1 1 1 1 1 1 1 1 1 1 y + ,.5.",
"5.w < , 1 , 1 , 1 , 1 1 , , 1 , , , 1 , 1 , 1 , 1 , 1 , 1 , 1 , 1 1 , , 1 1 , , 1 , 1 , 1 , 1 , 1 , 1 < w 5.",
"5.. 2 1 , 1 , , , , , , , 1 1 , , 1 1 , , , 1 , , 1 , 1 , 1 , , , , 1 , , , , 1 , , , 1 , , , 1 , 1 , 2 . 5.",
"5.. , , , , , , , , , , , , , , , , , , , , , , , , , , , , , , , , , , , , , , , , , , , , , , , , , , . 5.",
"5.. , , , , , , , , , , , , , , , , , , , , , , , , , , , , , , , , , , , , , , , , , , , , , , , , , , . 5.",
"5.. , > > , > , > , , , , > > > > , > , > , , > , , , > > , > , , , , * , : , > , > , : , : , > , , , > . 5.",
"5.. > > , > > > > > > > > , > > , > > > > > > > > : , > , > > > , > , > > , , > > > , > > , , , > > > > . 5.",
"5.. > : > > > > > > > > > : > > > > > > > : : > : : > > > > > > * , : > > : > > > : > > > : > : > > > :   5.",
"5.. > > > : > > : : > > : > > : > > : > > > > > > > $ > : - > > > * : > > > > : > : > : : : > : > > > > . 5.",
"5.. : : * : : * * > > : : > : : > * : : : : : : * $ z > : : : * * > * > > : : : : : : : : : : * - > : : . 5.",
"5.. * > * > * > > * * > * * : * * > * : : * * : : a >.% : : * > > * > * * > * : * : : * : * : * : * * > . 5.",
"5.. * * * * * * * * * : * : * : * * * * * * * * * ' 5.a * * * * * * * * * * : * * * * * * * * * : * * * . 5.",
"5.. * * * * * * * * * * * * * * * * * * * * * * = 2.5._ * * * * * * * * * * * * * * * * * * * * * * * * . 5.",
"5.. * * * * * * * * % * % * * % * * * * * * * * g 5.-.2.$ - * * * * * * * * * * * * * % * * * * * * * * . 5.",
"5.. % * % * * % % * * % * * % * * O             } >.S 5.d           . % % * * * % * % * * * * * * % % * . 5.",
"5.. * % % % * % * % % % % % * % * I 4.5.5.5.5.5.5.! * ,.5.5.5.5.5.5.#.t % % * % % % * % * % % % % % * % . 5.",
"5.. % % % % % % % % % % % % % % * $ i -.5.1.Y ! ~ 8 % D ! T [ 5.5.~ % % % % % % % % % % % % % % % % % % . 5.",
"5.. % $ % $ % $ % $ % % % % % % $ * $ $ ` 5.$.3 O % % % X z 4.,.h % % % % $ % $ % $ % $ % $ % $ % $ % % . 5.",
"5.. $ % % $ % % $ % $ % $ $ % $ $ * $ % % D 1.3.a % $ % ' 5.O.; % % $ % $ % $ % % % $ % $ % % $ % % $ % . 5.",
"5.. $ $ $ $ $ $ $ $ $ $ $ $ $ $ $ $ $ $ $ $ z 5.s X   + ' 4.# % $ $ $ $ $ $ $ $ $ $ $ $ $ $ $ $ $ $ $ $ . 4.",
"5.. $ $ $ % $ $ $ $ $ $ $ $ $ $ $ $ $ $ $ $ } :.o L -.4 f 5.f $ $ $ $ $ $ $ $ $ $ $ $ $ $ $ $ $ $ $ $ $ . 4.",
"5.. $ $ $ $ $ $ $ O $ $ $ $ $ $ $ $ $ $ $ # 4.[ +.5.2.5.L 4.( $ O $ $ $ $ $ $ $ $ $ $ $ $ $ $ $ $ $ $ $ X 5.",
"5.. $ $ $ $ $ $ $ $ $ $ $ $ $ $ $ $ $ $ $ d 5.5.3.z -  .5.5.2.O $ $ $ $ $ $ $ $ $ $ $ $ $ $ $ $ $ $ $ $   4.",
"5.. $ $ $ $ $ $ $ $ $ $ $ $ $ O $ $ $ $ O ` 5.#.6 $ $ $ H 3.5.r $ $ $ $ $ $ $ $ $ $ $ $ $ $ $ $ $ $ $ $ X 5.",
"5.  $ $ $ $ $ $ $ $ $ $ $ $ $ $ $ $ $ $ $ 1.Q $ $ $ O $ $ q &./ $ $ $ $ $ $ $ O $ $ $ $ $ $ $ $ $ $ $ $ . 5.",
"5.. $ $ $ $ $ $ $ O $ $ $ $ $ $ $ $ $ $ p s $ $ $ $ $ $ $ $ % P $ $ $ $ $ $ $ $ $ $ $ $ $ O $ $ $ $ $ $ . 5.",
"5.. $ $ $ O $ $ $ $ $ $ $ $ $ $ $ $ $ $ % $ $ $ $ $ $ $ $ $ $ % $ O $ $ $ $ $ $ $ $ $ $ $ $ $ $ $ $ $ $ . 5.",
"5.. $ $ $ O $ $ $ $ $ $ $ $ $ $ $ $ $ $ $ $ $ $ $ $ $ $ $ $ $ $ $ $ $ $ $ $ $ $ $ $ $ $ $ $ $ $ $ $ O $ . 5.",
"5.. $ $ $ $ $ $ $ $ $ $ $ $ $ $ $ $ $ O $ $ $ $ $ $ $ $ $ $ $ $ $ $ $ $ O $ $ $ $ $ $ $ $ $ $ $ $ $ $ $ . 5.",
"5.. $ $ $ $ $ $ $ O $ $ $ $ O $ $ $ $ $ $ $ $ O $ $ $ $ $ O $ $ $ $ $ O $ $ $ $ $ $ $ O $ $ $ $ $ $ $ $ . 5.",
"5.  $ $ $ $ $ $ $ $ $ $ $ $ $ $ O $ $ $ $ $ $ $ $ $ $ O $ $ $ $ $ $ $ $ $ $ $ $ $ $ $ $ $ $ O $ $ $ $ $ . 5.",
"5.. $ $ $ $ $ $ $ $ $ $ O $ $ $ $ $ $ $ $ $ $ $ $ $ $ $ $ $ $ $ $ $ $ $ $ $ $ $ $ $ $ $ $ $ $ $ $ $ $ $ . 5.",
"5.7 O $ $ $ $ $ $ $ $ $ $ $ $ $ $ $ $ $ $ $ $ $ $ $ $ $ $ $ $ $ $ $ $ $ $ O $ $ $ $ $ O $ $ $ $ $ $ $ O 7 5.",
"5.' X $ $ $ $ $ $ $ $ $ $ $ $ $ $ $ $ $ $ $ $ O $ $ $ $ $ $ $ $ $ $ $ $ $ $ $ $ $ $ $ $ $ $ $ $ $ $ $ X } 5.",
"5.5.q O $ $ O $ $ $ $ $ $ $ $ $ $ $ $ O $ $ $ $ $ $ $ $ O $ $ $ $ $ O $ $ $ $ $ $ $ $ $ $ $ $ $ $ O O 7 5.5.",
"5.5.2.w X O $ % $ $ $ $ $ $ $ $ $ $ $ $ $ $ $ $ $ $ $ $ $ $ $ $ % $ $ $ $ $ % $ $ $ $ $ % $ $ $ $ o 7 2.5.5.",
"5.5.5.2.o.7 .     . .   . X     . . . . . . . . .   .     X . . .   . . .   .   . . .   .   . . 7 o.2.5.5.5.",
"5.5.5.5.5.2.2.2.1.2.2.2.<.2.2.2.2.2.>.<.2.2.2.2.<.2.2.2.2.2.<.2.2.2.2.2.<.2.2.2.2.2.<.2.2.2.2.2.2.5.5.5.5.5.",
"5.5.5.5.5.5.5.5.5.5.5.5.5.5.5.5.5.5.5.5.5.5.5.5.5.5.5.5.5.5.5.5.5.5.5.5.5.5.5.5.5.5.5.5.5.5.5.5.5.5.5.5.5.5."
};
