# Blender v2.76 (sub 0) OBJ File: ''
# www.blender.org
mtllib 42tex.mtl
o Cube.001
v 0.232406 -0.745504 1.477731
v 0.232406 -0.745504 2.843098
v -0.227475 -0.745504 2.843098
v -0.227475 -0.745504 1.477731
v 0.232407 1.119982 1.133819
v -0.227475 1.119982 1.133818
v -0.227475 1.119982 1.602813
v 0.232406 1.119982 1.602814
v -0.227403 1.104268 0.408501
v -0.227403 0.507336 0.901477
v -0.227403 1.119377 0.901477
v 0.232406 -0.340316 2.843098
v -0.227475 -0.340316 2.843098
v -0.227475 -0.294496 2.297937
v -0.227475 -0.305193 1.133818
v 0.232407 -0.305193 1.133819
v 0.232406 -1.216630 1.133818
v -0.227475 -1.216630 1.133818
v 0.232407 -0.294496 2.297937
v 0.232406 -1.222569 1.497195
v -0.227475 -1.222569 1.497194
v -0.227403 -0.075523 -0.037620
v 0.223704 -0.075523 -0.037620
v 0.223704 -0.731178 -0.037620
v -0.227403 -0.731178 -0.037620
v 0.223704 0.551492 0.384487
v 0.223704 0.634134 -0.037620
v 0.223704 1.119377 -0.037620
v 0.223704 1.104269 0.408501
v 0.223704 -0.129772 0.901477
v -0.227403 -0.129772 0.901477
v -0.227403 -0.731178 0.901477
v 0.223704 -0.731178 0.901477
v 0.223704 1.119377 0.901477
v -0.227403 1.119377 -0.037620
v 0.223704 0.507336 0.901477
v -0.227403 0.551492 0.384487
v -0.227403 0.634134 -0.037620
v 0.223704 -0.066768 0.398575
v -0.227403 -0.066768 0.398575
v 0.223704 -0.684649 0.389681
v -0.227403 -0.684649 0.389681
vt 0.000000 0.000000
vt 1.000000 0.000000
vt 1.000000 1.000000
vt 0.000000 1.000000
vn 0.000000 -1.000000 -0.000000
vn -0.000000 1.000000 0.000000
vn -1.000000 -0.000000 0.000000
vn -0.000000 0.647400 0.762200
vn 0.000000 0.000000 -1.000000
vn 0.000000 0.000000 1.000000
vn 0.000000 -0.635500 -0.772100
vn 0.000000 1.000000 -0.009200
vn 0.000000 -0.999900 -0.016300
vn -0.000000 0.040800 0.999200
vn 1.000000 0.000000 0.000000
vn 0.000000 -0.636800 -0.771100
vn 0.000000 -0.043400 0.999100
vn 0.000000 0.604500 0.796600
vn 0.000000 -0.528400 -0.849000
vn 0.000000 0.014400 -0.999900
vn 0.000000 0.574300 0.818700
usemtl Material.001
s off
f 1/1/1 2/2/1 3/3/1 4/4/1
f 5/1/2 6/2/2 7/3/2 8/4/2
f 9/1/3 10/2/3 11/3/3
f 12/1/4 8/2/4 7/3/4 13/4/4
f 14/1/3 15/2/3 4/3/3
f 16/1/5 17/2/5 18/3/5 15/4/5
f 2/1/6 12/2/6 13/3/6 3/4/6
f 5/1/7 19/2/7 14/3/7 6/4/7
f 19/1/8 16/2/8 15/3/8 14/4/8
f 17/1/9 20/2/9 21/3/9 18/4/9
f 20/1/10 1/2/10 4/3/10 21/4/10
f 22/1/5 23/2/5 24/3/5 25/4/5
f 26/1/11 27/2/11 28/3/11 29/4/11
f 30/1/6 31/2/6 32/3/6 33/4/6
f 32/1/1 25/2/1 24/3/1 33/4/1
f 34/1/2 28/2/2 35/3/2 11/4/2
f 34/1/6 11/2/6 10/3/6 36/4/6
f 36/1/12 10/2/12 9/3/12 29/4/12
f 29/1/13 9/2/13 37/3/13 26/4/13
f 26/1/14 37/2/14 31/3/14 30/4/14
f 35/1/5 28/2/5 27/3/5 38/4/5
f 38/1/15 27/2/15 39/3/15 40/4/15
f 40/1/16 39/2/16 41/3/16 42/4/16
f 42/1/17 41/2/17 23/3/17 22/4/17
f 34/1/11 36/2/11 29/3/11
f 42/1/3 22/2/3 25/3/3
f 24/1/11 23/2/11 41/3/11
f 19/1/11 5/2/11 8/3/11
f 28/1/11 34/2/11 29/3/11
f 33/1/11 24/2/11 41/3/11
f 6/1/3 14/2/3 7/3/3
f 37/1/3 40/2/3 31/3/3
f 13/1/3 14/2/3 4/3/3 3/4/3
f 26/1/11 39/2/11 27/3/11
f 39/1/11 26/2/11 30/3/11
f 16/1/11 1/2/11 20/3/11 17/4/11
f 14/1/3 13/2/3 7/3/3
f 2/1/11 1/2/11 19/3/11 12/4/11
f 16/1/11 19/2/11 1/3/11
f 39/1/11 30/2/11 33/3/11 41/4/11
f 19/1/11 8/2/11 12/3/11
f 21/1/3 4/2/3 15/3/3 18/4/3
f 40/1/3 37/2/3 38/3/3
f 42/1/3 25/2/3 32/3/3
f 9/1/3 11/2/3 35/3/3
f 32/1/3 31/2/3 40/3/3 42/4/3
f 35/1/3 38/2/3 37/3/3 9/4/3
