/* XPM */
static char *pal3[] = {
/* columns rows colors chars-per-pixel */
"256 1 256 2 ",
"   c #E9E0DB",
".  c #E7DED9",
"X  c #DFDAD6",
"o  c #D7D6D2",
"O  c #CFD1CE",
"+  c #C6CCCC",
"@  c #BFC9C8",
"#  c #BCC6C7",
"$  c #B3BEC0",
"%  c #AFBDC0",
"&  c #AAB9C0",
"*  c #A1B3BD",
"=  c #97AFBB",
"-  c #8EAAB8",
";  c #89A6B6",
":  c #84A3B5",
">  c #689EB8",
",  c #669CB6",
"<  c #6099B4",
"1  c #5794B0",
"2  c #4E8FAD",
"3  c #458AA9",
"4  c #4087A7",
"5  c #3B84A4",
"6  c #337CAF",
"7  c #2F7BAD",
"8  c #2777A8",
"9  c #2073A5",
"0  c #176FA1",
"q  c #0F6B9E",
"w  c #09679A",
"e  c #056597",
"r  c #0F6E9C",
"t  c #11709C",
"y  c #18739F",
"u  c #2178A3",
"i  c #2A7DA7",
"p  c #3382AB",
"a  c #3A85AD",
"s  c #3C87AE",
"d  c #488FA5",
"f  c #4C90A7",
"g  c #5294AA",
"h  c #5A98AD",
"j  c #649EB2",
"k  c #6BA3B4",
"l  c #73A6B9",
"z  c #77A8B9",
"x  c #8FB0B7",
"c  c #93B2B7",
"v  c #99B6BA",
"b  c #A1BBBC",
"n  c #ACC0BF",
"m  c #B4C4C1",
"M  c #BAC9C2",
"N  c #BECBC2",
"B  c #C5D0CA",
"V  c #C7D2CC",
"C  c #CFD6CF",
"Z  c #D7DAD3",
"A  c #DFDFD7",
"S  c #E8E4DB",
"D  c #EFE6DD",
"F  c #F2EADF",
"G  c #F3ECDC",
"H  c #F0E8DB",
"J  c #E9E5D9",
"K  c #E0E0D6",
"L  c #D8DBD4",
"P  c #CFD5D1",
"I  c #C8D2D1",
"U  c #C6D0D1",
"Y  c #BECAC8",
"T  c #BAC9C6",
"R  c #B4C4C3",
"E  c #ACC0BF",
"W  c #A1BBBA",
"Q  c #99B7B7",
"!  c #93B2B4",
"~  c #8FB1B3",
"^  c #7AABB9",
"/  c #75A9B7",
"(  c #6EA6B5",
")  c #66A1B3",
"_  c #5C9AAF",
"`  c #5395AD",
"'  c #4D90AB",
"]  c #498EAB",
"[  c #3C87AE",
"{  c #3A85AD",
"}  c #3382AB",
"|  c #2A7DA7",
" . c #2178A3",
".. c #18739F",
"X. c #11709C",
"o. c #0F6E9C",
"O. c #046494",
"+. c #056494",
"@. c #086294",
"#. c #0D6094",
"$. c #115E94",
"%. c #145D94",
"&. c #165B94",
"*. c #195A94",
"=. c #3D4F8D",
"-. c #3F4F8B",
";. c #404E8B",
":. c #434D8A",
">. c #464C88",
",. c #494B88",
"<. c #4B4A86",
"1. c #4D4986",
"2. c #66466F",
"3. c #68456F",
"4. c #6A436F",
"5. c #6F426D",
"6. c #73406B",
"7. c #763F69",
"8. c #783D69",
"9. c #7A3D69",
"0. c #983564",
"q. c #9A3464",
"w. c #9D3363",
"e. c #A03261",
"r. c #A23061",
"t. c #A52F5F",
"y. c #A72F5D",
"u. c #A82E5D",
"i. c #BA2658",
"p. c #BD295B",
"a. c #C02E5F",
"s. c #C63465",
"d. c #CA3A6B",
"f. c #CE4070",
"g. c #D34575",
"h. c #D44877",
"j. c #D0627F",
"k. c #D36582",
"l. c #D66B87",
"z. c #DB748F",
"x. c #E07E97",
"c. c #E4869E",
"v. c #E78EA4",
"b. c #EA91A7",
"n. c #E9A0A9",
"m. c #EBA4AC",
"M. c #EFA9B1",
"N. c #F3B2B8",
"B. c #F8BBC0",
"V. c #FCC4C7",
"C. c #FECACC",
"Z. c #FFCECF",
"A. c #F6E5DB",
"S. c #F5E7DC",
"D. c #F5E9DD",
"F. c #F1E9DC",
"G. c #ECE9DA",
"H. c #E5E6D6",
"J. c #DEE2D1",
"K. c #DAE1CF",
"L. c #D0D4D3",
"P. c #CFD3D2",
"I. c #CBD1CF",
"U. c #C8CECC",
"Y. c #C2CBC8",
"T. c #BEC9C5",
"R. c #BBC6C2",
"E. c #B9C5C1",
"W. c #B3BEC4",
"Q. c #AFBCC4",
"!. c #AAB8C1",
"~. c #A1B3BD",
"^. c #97AFB9",
"/. c #8EAAB5",
"(. c #89A7B2",
"). c #84A4B1",
"_. c #6BA4B8",
"`. c #69A2B6",
"'. c #66A0B4",
"]. c #629CB0",
"[. c #5D9AAD",
"{. c #5897A9",
"}. c #5695A7",
"|. c #5293A5",
" X c #448EB3",
".X c #428CB1",
"XX c #3D88AF",
"oX c #3484A9",
"OX c #2C7EA4",
"+X c #2679A1",
"@X c #21769D",
"#X c #1E739C",
"$X c #156BA4",
"%X c #1069A1",
"&X c #0B669D",
"*X c #06649A",
"=X c #066198",
"-X c #095F98",
";X c #0E609A",
":X c #11609B",
">X c #285691",
",X c #2C548F",
"<X c #32528D",
"1X c #3A4E89",
"2X c #444A86",
"3X c #4C4682",
"4X c #52447F",
"5X c #56427D",
"6X c #6F4374",
"7X c #724272",
"8X c #793F71",
"9X c #813B6D",
"0X c #8A3868",
"qX c #923564",
"wX c #993162",
"eX c #9C3061",
"rX c #B23060",
"tX c #B32D5F",
"yX c #B82C5D",
"uX c #BE2C5D",
"iX c #C52D60",
"pX c #CA3263",
"aX c #D03867",
"sX c #D23C6A",
"dX c #CA5C79",
"fX c #CF617E",
"gX c #D66B87",
"hX c #DB748F",
"jX c #E07E97",
"kX c #E5879F",
"lX c #EA91A7",
"zX c #F097AD",
"xX c #E5B2B1",
"cX c #E8B6B5",
"vX c #EBBEBB",
"bX c #F0C7C3",
"nX c #F7D2CC",
"mX c #FDDCD5",
"MX c #FFE3DB",
"NX c #FFE6DE",
"BX c #FEF1E0",
"VX c #FEF1E0",
"CX c #FEF1E0",
"ZX c #FEF1E0",
"AX c #FEF1E0",
"SX c #FEF1E0",
"DX c #FEF1E0",
"FX c #FEF1E0",
"GX c #FEF1E0",
"HX c #FEF1E0",
"JX c #FEF1E0",
"KX c #FEF1E0",
"LX c #FEF1E0",
"PX c #FEF1E0",
"IX c #FEF1E0",
"UX c #FEF1E0",
/* pixels */
"  . X o O + @ # $ % & * = - ; : > , < 1 2 3 4 5 6 7 8 9 0 q w e r t y u i p a s d f g h j k l z x c v b n m M N B V C Z A S D F G H J K L P I U Y T R E W Q ! ~ ^ / ( ) _ ` ' ] [ { } |  ...X.o.O.+.@.#.$.%.&.*.=.-.;.:.>.,.<.1.2.3.4.5.6.7.8.9.0.q.w.e.r.t.y.u.i.p.a.s.d.f.g.h.j.k.l.z.x.c.v.b.n.m.M.N.B.V.C.Z.A.S.D.F.G.H.J.K.L.P.I.U.Y.T.R.E.W.Q.!.~.^./.(.)._.`.'.].[.{.}.|. X.XXXoXOX+X@X#X$X%X&X*X=X-X;X:X>X,X<X1X2X3X4X5X6X7X8X9X0XqXwXeXrXtXyXuXiXpXaXsXdXfXgXhXjXkXlXzXxXcXvXbXnXmXMXNXBXVXCXZXAXSXDXFXGXHXJXKXLXPXIXUX"
};
