/* XPM */
static char *scale4[] = {
/* columns rows colors chars-per-pixel */
"512 1 227 2 ",
"   c #7C0F2C",
".  c #6E0C35",
"X  c #660F3C",
"o  c #780E32",
"O  c #3C2B79",
"+  c #5B1249",
"@  c #4B185A",
"#  c #601141",
"$  c #411F6B",
"%  c #402471",
"&  c #9E191C",
"*  c #A3200C",
"=  c #A4210D",
"-  c #A5220E",
";  c #A6230F",
":  c #AA270B",
">  c #AB280C",
",  c #AC290D",
"<  c #AD2A0E",
"1  c #AE2B0F",
"2  c #B23107",
"3  c #B33208",
"4  c #B43309",
"5  c #B5340A",
"6  c #B6350B",
"7  c #B7360C",
"8  c #B8370D",
"9  c #B9380E",
"0  c #A72410",
"q  c #A82511",
"w  c #AF2C10",
"e  c #B02D11",
"r  c #891427",
"t  c #961625",
"y  c #C5380A",
"u  c #C6390B",
"i  c #C73A0C",
"p  c #C83B0D",
"a  c #CA3D0F",
"s  c #CB3E10",
"d  c #CE420D",
"f  c #CF430E",
"g  c #D0440F",
"h  c #D54B0C",
"j  c #D64C0D",
"k  c #D74D0E",
"l  c #D84E0F",
"z  c #D55B06",
"x  c #D65C07",
"c  c #D75D08",
"v  c #D85E09",
"b  c #D95F0A",
"n  c #D14510",
"m  c #D24611",
"M  c #D34712",
"N  c #D44813",
"B  c #D94F10",
"V  c #DA5011",
"C  c #DB5112",
"Z  c #DA600B",
"A  c #DF660B",
"S  c #DB610C",
"D  c #E0670C",
"F  c #E1680D",
"G  c #E2690E",
"H  c #E36A0F",
"J  c #E46B10",
"K  c #E56C11",
"L  c #E76F10",
"P  c #E87011",
"I  c #E97112",
"U  c #EA7213",
"Y  c #EB7314",
"T  c #EC7415",
"R  c #ED7516",
"E  c #EE7617",
"W  c #EE7919",
"Q  c #EF7A1A",
"!  c #F07B1B",
"~  c #F17C1C",
"^  c #F27D1D",
"/  c #F37E1E",
"(  c #F47F1F",
")  c #F28617",
"_  c #F38718",
"`  c #F5891A",
"'  c #F68A1B",
"]  c #F78B1C",
"[  c #F88C1D",
"{  c #F3941C",
"}  c #F4951D",
"|  c #F6971F",
" . c #F79820",
".. c #F89921",
"X. c #F99A22",
"o. c #F5A125",
"O. c #F6A226",
"+. c #F7A327",
"@. c #F8A428",
"#. c #F9A529",
"$. c #FAA62A",
"%. c #FBA72B",
"&. c #F7AC2D",
"*. c #F8AD2E",
"=. c #F9AE2F",
"-. c #FAAF30",
";. c #FBB031",
":. c #FCB132",
">. c #FDB233",
",. c #FCB535",
"<. c #FDB636",
"1. c #FEB737",
"2. c #FFB838",
"3. c #F9C03D",
"4. c #FAC13E",
"5. c #FBC23F",
"6. c #F8CA52",
"7. c #FAD459",
"8. c #F1DD60",
"9. c #E7E668",
"0. c #E1EB78",
"q. c #3E3286",
"w. c #363791",
"e. c #39409A",
"r. c #304A9F",
"t. c #314BA0",
"y. c #324CA1",
"u. c #334DA2",
"i. c #2758A7",
"p. c #2859A8",
"a. c #295AA9",
"s. c #2A5BAA",
"d. c #2B5CAB",
"f. c #2A5FAD",
"g. c #2C5DAC",
"h. c #2B60AE",
"j. c #2C61AF",
"k. c #2D62B0",
"l. c #2F64B2",
"z. c #2C6CB6",
"x. c #2D6DB7",
"c. c #2E6EB8",
"v. c #2F6FB9",
"b. c #3065B3",
"n. c #2B75BC",
"m. c #2C76BD",
"M. c #2D77BE",
"N. c #2E78BF",
"B. c #3070BA",
"V. c #3171BB",
"C. c #3272BC",
"Z. c #2F79C0",
"A. c #307AC1",
"S. c #317BC2",
"D. c #2D80C4",
"F. c #2E81C5",
"G. c #2F82C6",
"H. c #3083C7",
"J. c #3184C8",
"K. c #3285C9",
"L. c #3386CA",
"P. c #358ACB",
"I. c #368BCC",
"U. c #378CCD",
"Y. c #388DCE",
"T. c #398ECF",
"R. c #3A8FD0",
"E. c #3B90D1",
"W. c #3996D3",
"Q. c #3A97D4",
"!. c #3B98D5",
"~. c #3C99D6",
"^. c #3D9AD7",
"/. c #3E9BD8",
"(. c #3F9CD9",
"). c #3F9ED8",
"_. c #409FD9",
"`. c #41A0DA",
"'. c #42A1DB",
"]. c #43A2DC",
"[. c #44A3DD",
"{. c #45A4DE",
"}. c #46A5DF",
"|. c #44ABD8",
" X c #45ACD9",
".X c #46ADDA",
"XX c #47AEDB",
"oX c #48AFDC",
"OX c #47B3D7",
"+X c #48B4D8",
"@X c #49B5D9",
"#X c #4AB6DA",
"$X c #4BB7DB",
"%X c #49B0DD",
"&X c #4AB1DE",
"*X c #4FBCD9",
"=X c #4CB8DC",
"-X c #4DB9DD",
";X c #50BDDA",
":X c #51BEDB",
">X c #52BFDC",
",X c #54C1DE",
"<X c #55C2DF",
"1X c #6AD9D2",
"2X c #61D1DC",
"3X c #62D2DD",
"4X c #63D3DE",
"5X c #75DFD1",
"6X c #79E4D0",
"7X c #7AE5D1",
"8X c #7BE6D2",
"9X c #57C5E0",
"0X c #58C6E1",
"qX c #5AC8E3",
"wX c #5BC9E4",
"eX c #5CCAE5",
"rX c #5DCBE6",
"tX c #BAFAA4",
"yX c #AEF9B6",
"uX c #DDEF81",
"iX c #DBF48C",
"pX c #D3F891",
"aX c #CCF6A0",
"sX c #87ECCA",
"dX c #99F7C5",
"fX c #91F3CA",
"gX c #A6F6C3",
/* pixels */
"* = = = 0 0 0 q : : > , , w w e 2 3 4 5 5 8 8 9 y y y p p a a s d d d n n n N N h h j j B B V V x x c v v S S S A A D F F J J K K I I I T T T E Q Q Q ! ! ^ / _ ) _ _ ` ` [ [ [ { } } |  .......O.O.O.+.+.$.$.%.&.&.&.:.:.:.:.:.<.<.<.<.2.2.2.2.2.4.4.4.4.4.4.5.6.6.6.6.6.6.6.6.7.7.7.7.7.7.7.7.8.8.8.8.8.8.8.8.9.9.9.9.9.9.9.9.uX0.0.0.0.0.0.0.uXuXuXuXuXuXuXuXiXiXiXiXiXiXiXiXpXpXpXpXpXpXpXpXaXaXaXaXaXaXaXaXtXtXtXtXtXtXtXtXyXyXyXyXyXyXyXyXgXgXgXgXgXgXgXgXdXdXdXdXdXdXdXdXfXfXfXfXfXfXfXfXsXsXsXsXsXsXsXsX7X7X7X7X7X7X6X6X5X5X5X5X5X5X5X5X1X1X1X1X1X1X1X1X4X4X4X4X4X4X2X2XeXeXeXeXqX9XqX<X<X<X,X:X:X:X*X*X=X=X$X$X$XOXOXOXoXoXoXXX.X.X|.|.}.{.{.'.'._._.).)././.!.!.!.!.W.R.R.R.R.U.U.U.P.K.J.J.J.F.F.S.F.S.S.Z.Z.Z.Z.n.n.V.V.V.V.v.c.c.z.l.l.l.k.k.h.f.f.f.f.s.s.s.i.s.i.y.y.y.y.y.y.r.r.w.e.e.e.e.e.e.e.w.w.w.w.w.w.w.w.q.q.q.q.q.q.q.q.O O O O O O O O % % % % % % % % % $ $ $ $ $ $ $ @ @ @ @ @ @ @ @ + + + + + + + + # # # # # # # # X X X X X X X X . . . . . . . . o o o o o o o o                 r r r r r r r r t t t t t t t t & & & & & & & & "
};
