/* XPM */
static char *scale5[] = {
/* columns rows colors chars-per-pixel */
"512 1 105 2 ",
"   c #7B494A",
".  c #744B51",
"X  c #675058",
"o  c #685161",
"O  c #625863",
"+  c #615C70",
"@  c #625E75",
"#  c #5F6478",
"$  c #5E6B7E",
"%  c #A8521F",
"&  c #AD5818",
"*  c #B65D1B",
"=  c #BA6218",
"-  c #994F28",
";  c #8F4B38",
":  c #A14E26",
">  c #CD760F",
",  c #C36815",
"<  c #C97110",
"1  c #CE7710",
"2  c #CF7811",
"3  c #D07912",
"4  c #D17A13",
"5  c #D27B14",
"6  c #D67F15",
"7  c #854545",
"8  c #884741",
"9  c #DB870D",
"0  c #DC880E",
"q  c #DD890F",
"w  c #DE8A10",
"e  c #E28E12",
"r  c #E38F13",
"t  c #E49014",
"y  c #E79911",
"u  c #E89A12",
"i  c #E99B13",
"p  c #EB9E10",
"a  c #EC9F11",
"s  c #EDA012",
"d  c #EEA113",
"f  c #EFA214",
"g  c #F0A315",
"h  c #F2AA1A",
"j  c #F4AE1B",
"k  c #F5AF1C",
"l  c #F6B01D",
"z  c #F7B11E",
"x  c #F8B21F",
"c  c #FCB825",
"v  c #F7C028",
"b  c #F8CA2F",
"n  c #FACF35",
"m  c #FED73C",
"M  c #F7DE44",
"N  c #F4E54A",
"B  c #EAED54",
"V  c #EAEC64",
"C  c #E9EF67",
"Z  c #E7F56E",
"A  c #E1F57C",
"S  c #5B7E9A",
"D  c #617389",
"F  c #647496",
"G  c #5A939E",
"H  c #5B949F",
"J  c #5C95A0",
"K  c #5D96A1",
"L  c #5D9CA3",
"P  c #5E9DA4",
"I  c #5F9EA5",
"U  c #6186A1",
"Y  c #609FA6",
"T  c #63A3A3",
"R  c #64A4A4",
"E  c #65A5A5",
"W  c #66A6A6",
"Q  c #69ABAA",
"!  c #6AACAB",
"~  c #6BADAC",
"^  c #6EB2B1",
"/  c #6FB3B2",
"(  c #70B4B3",
")  c #72BBB2",
"_  c #73BCB3",
"`  c #74BDB4",
"'  c #75BEB5",
"]  c #7CC6B5",
"[  c #7FCAB3",
"{  c #BAF19E",
"}  c #80CBB4",
"|  c #81CCB5",
" . c #82CDB6",
".. c #83CEB7",
"X. c #8ED8B7",
"o. c #86D2B8",
"O. c #95DDB5",
"+. c #9CE4B6",
"@. c #AAF0A7",
"#. c #A1EAB3",
"$. c #CEF58B",
"%. c #DBF685",
"&. c #D6F888",
"*. c #CCF194",
"=. c #C4F099",
/* pixels */
"+ + + + + + + + O O O O O O O O o o o o o o o o X X X X X X X X . . . . . . . .                 7 7 7 7 7 7 7 7 8 8 8 8 8 8 8 8 ; ; ; ; ; ; ; ; - - - - - - - - : : : : : : : : % % % % % % % % & & & & & & & & * * * * * * * * = = = = = = = = , , , , , , , , < < < < < < < < > > 1 2 3 3 5 5 6 6 6 6 6 6 6 6 9 0 0 0 0 w w w e e e e t e t t u y y u u u i i a a a s s g g g h h h h h h h h j j k k l l x x c c c c c c c c v v v v v v v v b b b b b b b b n n n n n n n n m m m m m m m m M M M M M M M M N N N N N N N N B B B B B B B B V V V V V V V V C C C C C C C C Z Z Z Z Z Z Z Z A A A A A A A A %.%.%.%.%.%.%.%.&.&.&.&.&.&.&.&.$.$.$.$.$.$.$.$.*.*.*.*.*.*.*.*.=.=.=.=.=.=.=.=.{ { { { { { { { @.@.@.@.@.@.@.@.#.#.#.#.#.#.#.#.+.+.+.+.+.+.+.+.O.O.O.O.O.O.O.O.X.X.X.X.X.X.X.X.o.o.o.o.o.o.o.o.........} } [ [ ] ] ] ] ] ] ] ] ' ' _ ' ) _ ) ) ( ( ( / / / / / Q ! ~ ! ! Q Q Q W W W W T T W T I I I I I L L L K K K H H H H G U U U U U U U U S S S S S S S S F F F F F F F F D D D D D D D D $ $ $ $ $ $ $ $ # # # # # # # # @ @ @ @ @ @ @ @ "
};
