/* XPM */
static char *pal[] = {
/* columns rows colors chars-per-pixel */
"256 1 222 2",
"   c #000000",
".  c #040000",
"X  c #080000",
"o  c #0C0000",
"O  c #100000",
"+  c #140000",
"@  c #180000",
"#  c #1C0000",
"$  c #200000",
"%  c #240000",
"&  c #280000",
"*  c #2C0000",
"=  c #300000",
"-  c #340000",
";  c #380000",
":  c #3C0000",
">  c #400000",
",  c #440000",
"<  c #480000",
"1  c #4C0000",
"2  c #500000",
"3  c #540000",
"4  c #580000",
"5  c #5C0000",
"6  c #600000",
"7  c #640000",
"8  c #680000",
"9  c #6C0000",
"0  c #700000",
"q  c #740000",
"w  c #780000",
"e  c #7C0000",
"r  c #800000",
"t  c #840000",
"y  c #880000",
"u  c #8C0000",
"i  c #900000",
"p  c #940000",
"a  c #980000",
"s  c #9C0000",
"d  c #A00000",
"f  c #A40000",
"g  c #A80000",
"h  c #AC0000",
"j  c #B00000",
"k  c #B40000",
"l  c #B80000",
"z  c #BC0000",
"x  c #C00000",
"c  c #C40000",
"v  c #C80000",
"b  c #CC0000",
"n  c #C80400",
"m  c #C80C00",
"M  c #D00000",
"N  c #D40000",
"B  c #D80000",
"V  c #DC0000",
"C  c #CC1000",
"Z  c #CC1800",
"A  c #D01C00",
"S  c #E00000",
"D  c #E40000",
"F  c #E80000",
"G  c #EC0000",
"H  c #F00000",
"J  c #F40000",
"K  c #F80000",
"L  c #FC0000",
"P  c #FC0800",
"I  c #FC0C00",
"U  c #FC1000",
"Y  c #FC1800",
"T  c #FC1C00",
"R  c #D02400",
"E  c #D02800",
"W  c #D43000",
"Q  c #D43800",
"!  c #D83C00",
"~  c #FC2000",
"^  c #FC2800",
"/  c #FC2C00",
"(  c #FC3000",
")  c #FC3800",
"_  c #FC3C00",
"`  c #D84400",
"'  c #D84800",
"]  c #DC5000",
"[  c #DC5400",
"{  c #FC4000",
"}  c #FC4800",
"|  c #FC4C00",
" . c #E05C00",
".. c #FC5000",
"X. c #FC5400",
"o. c #FC5C00",
"O. c #E06400",
"+. c #E06800",
"@. c #FC6000",
"#. c #FC6400",
"$. c #FC6C00",
"%. c #E47000",
"&. c #E47400",
"*. c #E87C00",
"=. c #FC7000",
"-. c #FC7400",
";. c #FC7C00",
":. c #E88000",
">. c #E88800",
",. c #EC8C00",
"<. c #FC8000",
"1. c #FC8400",
"2. c #FC8C00",
"3. c #EC9400",
"4. c #FC9000",
"5. c #FC9400",
"6. c #F09C00",
"7. c #FC9C00",
"8. c #F0A000",
"9. c #FCA000",
"0. c #FCA400",
"q. c #F0A800",
"w. c #F4AC00",
"e. c #FCA800",
"r. c #F4B400",
"t. c #FCB000",
"y. c #FCB400",
"u. c #F8B800",
"i. c #FCB800",
"p. c #F8C000",
"a. c #FCC000",
"s. c #FCC400",
"d. c #FCC800",
"f. c #FCC804",
"g. c #FCC80C",
"h. c #FCD000",
"j. c #FCD400",
"k. c #FCD800",
"l. c #FCCC14",
"z. c #FCCC1C",
"x. c #FCE000",
"c. c #FCE400",
"v. c #FCE800",
"b. c #FCF000",
"n. c #FCF400",
"m. c #FCF800",
"M. c #FCFC00",
"N. c #FCFC08",
"B. c #FCFC0C",
"V. c #FCFC10",
"C. c #FCFC18",
"Z. c #FCFC1C",
"A. c #FCD024",
"S. c #FCD02C",
"D. c #FCD034",
"F. c #FCD43C",
"G. c #FCFC20",
"H. c #FCFC28",
"J. c #FCFC2C",
"K. c #FCFC30",
"L. c #FCFC38",
"P. c #FCFC3C",
"I. c #FCD444",
"U. c #FCD84C",
"Y. c #FCD854",
"T. c #FCD85C",
"R. c #FCFC40",
"E. c #FCFC48",
"W. c #FCFC4C",
"Q. c #FCFC50",
"!. c #FCFC54",
"~. c #FCFC5C",
"^. c #FCDC64",
"/. c #FCDC6C",
"(. c #FCFC60",
"). c #FCFC64",
"_. c #FCFC6C",
"`. c #FCE074",
"'. c #FCE07C",
"]. c #FCFC70",
"[. c #FCFC74",
"{. c #FCFC7C",
"}. c #FCE084",
"|. c #FCE48C",
" X c #FCFC80",
".X c #FCFC84",
"XX c #FCFC8C",
"oX c #FCE494",
"OX c #FCE89C",
"+X c #FCFC90",
"@X c #FCFC94",
"#X c #FCFC9C",
"$X c #FCE8A4",
"%X c #FCE8AC",
"&X c #FCFCA0",
"*X c #FCFCA4",
"=X c #FCFCA8",
"-X c #FCECB4",
";X c #FCECBC",
":X c #FCFCB0",
">X c #FCFCB4",
",X c #FCFCB8",
"<X c #FCF0C4",
"1X c #FCFCC0",
"2X c #FCFCC4",
"3X c #FCF0CC",
"4X c #FCFCC8",
"5X c #FCF0D4",
"6X c #FCFCD0",
"7X c #FCFCD4",
"8X c #FCF4DC",
"9X c #FCFCD8",
"0X c #FCF4E4",
"qX c #FCFCE0",
"wX c #FCFCE4",
"eX c #FCFCE8",
"rX c #FCF8EC",
"tX c #FCFCF0",
"yX c #FCF8F4",
"uX c #FCFCF4",
"iX c #FCFCF8",
"pX c #FCFCFC",
/* pixels */
"    . o O @ $ % * = ; > , 1 2 4 6 7 9 q w r t u p a d f h k l x v n m C Z A R E W Q ! ` ' ] [  .O.+.%.&.*.:.>.,.3.6.8.q.w.r.u.p.d.f.g.l.z.A.S.D.F.I.U.Y.T.^./.`.'.}.|.oXOX$X%X-X;X<X3X5X8X0XrXyXpXiXuXtXeXwXqX9X7X6X4X2X1X,X>X:X=X*X&X#X@X+XXX.X X{.[.]._.).(.~.!.Q.W.E.R.P.L.K.J.H.G.Z.C.V.B.N.M.m.n.b.v.c.x.k.j.h.d.s.a.i.y.t.e.0.9.7.5.4.2.1.<.;.-.=.$.#.@.o.X...| } { _ ) ( / ^ ~ T Y U I P L K J H G F D S V B N M b v c x z l k j h g f d s a p i u y t r e w q 0 9 8 7 6 5 4 3 2 1 < , > : ; - = * & % $ # @ + O o X     "
};
