/* XPM */
static char *test[] = {
/* columns rows colors chars-per-pixel */
"16 128 8 1",
"  c #FF0000",
". c #00FF00",
"X c #FF8000",
"o c #FFFF00",
"O c #FF0080",
"+ c #8000FF",
"@ c #FF00FF",
"# c #00FFFF",
/* pixels */
"                ",
" XXXXXXXXXXXXXX ",
" XooooooooooooX ",
" Xo..........oX ",
" Xo.########.oX ",
" Xo.#++++++#.oX ",
" Xo.#+@@@@+#.oX ",
" Xo.#+@OO@+#.oX ",
" Xo.#+@OO@+#.oX ",
" Xo.#+@@@@+#.oX ",
" Xo.#++++++#.oX ",
" Xo.########.oX ",
" Xo..........oX ",
" XooooooooooooX ",
" XXXXXXXXXXXXXX ",
"                ",
"OOOOOOOOOOOOOOOO",
"O              O",
"O XXXXXXXXXXXX O",
"O XooooooooooX O",
"O Xo........oX O",
"O Xo.######.oX O",
"O Xo.#++++#.oX O",
"O Xo.#+@@+#.oX O",
"O Xo.#+@@+#.oX O",
"O Xo.#++++#.oX O",
"O Xo.######.oX O",
"O Xo........oX O",
"O XooooooooooX O",
"O XXXXXXXXXXXX O",
"O              O",
"OOOOOOOOOOOOOOOO",
"@@@@@@@@@@@@@@@@",
"@OOOOOOOOOOOOOO@",
"@O            O@",
"@O XXXXXXXXXX O@",
"@O XooooooooX O@",
"@O Xo......oX O@",
"@O Xo.####.oX O@",
"@O Xo.#++#.oX O@",
"@O Xo.#++#.oX O@",
"@O Xo.####.oX O@",
"@O Xo......oX O@",
"@O XooooooooX O@",
"@O XXXXXXXXXX O@",
"@O            O@",
"@OOOOOOOOOOOOOO@",
"@@@@@@@@@@@@@@@@",
"++++++++++++++++",
"+@@@@@@@@@@@@@@+",
"+@OOOOOOOOOOOO@+",
"+@O          O@+",
"+@O XXXXXXXX O@+",
"+@O XooooooX O@+",
"+@O Xo....oX O@+",
"+@O Xo.##.oX O@+",
"+@O Xo.##.oX O@+",
"+@O Xo....oX O@+",
"+@O XooooooX O@+",
"+@O XXXXXXXX O@+",
"+@O          O@+",
"+@OOOOOOOOOOOO@+",
"+@@@@@@@@@@@@@@+",
"++++++++++++++++",
"################",
"#++++++++++++++#",
"#+@@@@@@@@@@@@+#",
"#+@OOOOOOOOOO@+#",
"#+@O        O@+#",
"#+@O XXXXXX O@+#",
"#+@O XooooX O@+#",
"#+@O Xo..oX O@+#",
"#+@O Xo..oX O@+#",
"#+@O XooooX O@+#",
"#+@O XXXXXX O@+#",
"#+@O        O@+#",
"#+@OOOOOOOOOO@+#",
"#+@@@@@@@@@@@@+#",
"#++++++++++++++#",
"################",
"................",
".##############.",
".#++++++++++++#.",
".#+@@@@@@@@@@+#.",
".#+@OOOOOOOO@+#.",
".#+@O      O@+#.",
".#+@O XXXX O@+#.",
".#+@O XooX O@+#.",
".#+@O XooX O@+#.",
".#+@O XXXX O@+#.",
".#+@O      O@+#.",
".#+@OOOOOOOO@+#.",
".#+@@@@@@@@@@+#.",
".#++++++++++++#.",
".##############.",
"................",
"oooooooooooooooo",
"o..............o",
"o.############.o",
"o.#++++++++++#.o",
"o.#+@@@@@@@@+#.o",
"o.#+@OOOOOO@+#.o",
"o.#+@O    O@+#.o",
"o.#+@O XX O@+#.o",
"o.#+@O XX O@+#.o",
"o.#+@O    O@+#.o",
"o.#+@OOOOOO@+#.o",
"o.#+@@@@@@@@+#.o",
"o.#++++++++++#.o",
"o.############.o",
"o..............o",
"oooooooooooooooo",
"XXXXXXXXXXXXXXXX",
"XooooooooooooooX",
"Xo............oX",
"Xo.##########.oX",
"Xo.#++++++++#.oX",
"Xo.#+@@@@@@+#.oX",
"Xo.#+@OOOO@+#.oX",
"Xo.#+@O  O@+#.oX",
"Xo.#+@O  O@+#.oX",
"Xo.#+@OOOO@+#.oX",
"Xo.#+@@@@@@+#.oX",
"Xo.#++++++++#.oX",
"Xo.##########.oX",
"Xo............oX",
"XooooooooooooooX",
"XXXXXXXXXXXXXXXX"
};
