/* XPM */
static char *wall[] = {
/* columns rows colors chars-per-pixel */
"32 32 113 2 ",
"   c #0C1C0C",
".  c #0D1D0D",
"X  c #0E1F0E",
"o  c #0E200E",
"O  c #102410",
"+  c #102510",
"@  c #112611",
"#  c #122A12",
"$  c #122B12",
"%  c #132B13",
"&  c #142D14",
"*  c #142E14",
"=  c #153015",
"-  c #173417",
";  c #183718",
":  c #183818",
">  c #193919",
",  c #1A3B1A",
"<  c #1A3C1A",
"1  c #1B3F1B",
"2  c gray13",
"3  c #2C2C2C",
"4  c gray20",
"5  c gray21",
"6  c #373737",
"7  c gray22",
"8  c gray24",
"9  c #1C401C",
"0  c #1C411C",
"q  c #1F461F",
"w  c #1F471F",
"e  c #204920",
"r  c #204A20",
"t  c #214B21",
"y  c #214C21",
"u  c #224D22",
"i  c #235023",
"p  c #235123",
"a  c #255525",
"s  c #265726",
"d  c #265826",
"f  c #295E29",
"g  c #2B622B",
"h  c #2B632B",
"j  c #2D662D",
"k  c #2E6A2E",
"l  c #316F31",
"z  c #317031",
"x  c #357935",
"c  c #377D37",
"v  c #387F38",
"b  c #565656",
"n  c gray34",
"m  c #5B5B5B",
"M  c gray36",
"N  c gray37",
"B  c #626262",
"V  c gray39",
"C  c #686868",
"Z  c DimGray",
"A  c gray43",
"S  c #6F6F6F",
"D  c #727272",
"F  c gray46",
"G  c gray47",
"H  c #797979",
"J  c #7B7B7B",
"K  c #7C7C7C",
"L  c gray49",
"P  c #7E7E7E",
"I  c gray50",
"U  c #398139",
"Y  c #398339",
"T  c #3A843A",
"R  c #3B863B",
"E  c #3C893C",
"W  c #3D8A3D",
"Q  c #818181",
"!  c #838383",
"~  c #848484",
"^  c gray52",
"/  c #868686",
"(  c #888888",
")  c #898989",
"_  c gray54",
"`  c #8B8B8B",
"'  c gray56",
"]  c #909090",
"[  c gray57",
"{  c #929292",
"}  c gray58",
"|  c #959595",
" . c #9B9B9B",
".. c #9D9D9D",
"X. c gray62",
"o. c #9F9F9F",
"O. c #A2A2A2",
"+. c gray64",
"@. c #A4A4A4",
"#. c gray65",
"$. c gray66",
"%. c #A9A9A9",
"&. c #AAAAAA",
"*. c #B1B1B1",
"=. c gray70",
"-. c #B4B4B4",
";. c #B6B6B6",
":. c #B7B7B7",
">. c gray72",
",. c #B9B9B9",
"<. c #C0C0C0",
"1. c gray77",
"2. c #CBCBCB",
/* pixels */
"*.*.*.#.} I t q m *.*.*.I m *.} *.*.*.#.} I w w m *.*.*.^ m *.} ",
"*.*.C I 3 q W W q I ^ I } $ S  .*.*.C I 3 w W W w I _ I _ - A  .",
"q I I @ q W *.j 5   _ I $ q q ^ q I I o q W *.j 5   _ I $ w q ^ ",
"d : @ q >.p } I 8 w $ 8 w *.*.w d : $ w >.p } I 7 w $ 8 w $.>.q ",
"*.*.m w *.^ ^ 8 w Y  .x : I *.m *.*.m q *.^ ^ 8 w Y ..z q I #.m ",
"D ^ I q f _ I $ W 1.G k C m o $ D ^ I q f ( I $ Y <.I j C n o $ ",
"I I j q t $ 7 t w z #.j S I j n I I j q p $ 7 w t z #.j D I j n ",
"I I o q Y *.q q w : 5 ( I 7 t ,.I I o q Y *.w q t : 5 _ I 8 t ,.",
"I   w >.W j p *.$.j w : - 2 <.*.I o w ,.W j d *.$.j t : - 2 <.*.",
"_ m *.*.k $ *.C >.z } w N <.^ I _ m *.*.k $ *.C ,.k _ q m <.^ ^ ",
"m Y I I I 5 *.} I j ^ 7 t m  .^ m Y G I I 5 *.| I j ^ 5 w m  .^ ",
"w w x I A 5 I ^ ' I + q Y w q 7 w w x I A 7 I I } I $ q Y q q 5 ",
"*.*.$ $ $ $ t I - $ *...j I q w *.*.+ $ + $ p I : $ *...j I q w ",
"*.I d >.Y *.q 5 t 2.#.I ' I _ 5 >.I d >.Y >.w 7 t 2.$.I } I ( 5 ",
"D _ - #.^ I I q w w I } _ } 8 $ G _ - #.^ G I q w w I ' _ } 8 $ ",
"I D D : o o $ q W I n w : : - N G D S : o o + q W ^ n w - : $ C ",
"*.*.*.$.} I w q m *.*.*.^ m *.' *.*.*.$.} I w w m *.*.*.^ m *.} ",
"*.*.C I 3 w W W w I ( I _ - S  .*.*.C I 3 w W W w I ( I ' $ S  .",
"w I I o w W *.k 5   _ I $ w w ^ w I I o w W *.j 5   _ I $ w w ^ ",
"d : + w >.p } I 7 q + 8 q *.>.w d : + w >.p } I 7 w $ 8 w $.>.w ",
"*.*.m w *.( ^ 8 w Y ..x : I $.m *.*.n w *.^ ^ 8 w Y  .x q I #.m ",
"D ( I w d _ I $ Y <.I k C m o - D ( I w f _ I $ Y <.G j C n o $ ",
"I I j q p $ 7 w w z #.f D I j n I I j w p $ 7 w t z #.j D I j n ",
"I I o q W *.w q w : 5 ( I 7 t <.I I o q Y *.w q t : 7 ( I 7 t <.",
"I   w >.W f p *.$.j w : - 2 <.*.I   w >.W j d *.*.d w : - 2 <.*.",
"_ n *.*.k - *.C >.k ' w m <.I I _ m *.*.k - *.C ,.z } w N <.I I ",
"m Y I I I 5 *.| I j ^ 5 w m  .^ m Y I I I 3 *.| I j ^ 7 w m ..( ",
"w w x I A 7 I ^ } I $ q W w w 7 w q x I S 7 I I } I $ : W w w 7 ",
"*.*.+ - + + p I : $ *...j I w q *.*.+ $ + - w I : $ *...j I w w ",
">.I d >.Y >.w 7 w 2.$.I ' I ( 7 >.I d >.Y >.w 7 t 2.$.I ' I ( 7 ",
"D ( - ..( G I w w w I ' ( } 8 $ D ( - #.^ G I q w w I ' _ } 8 $ ",
"G G S 9 o o + w W ^ n w : : $ C G G S : o o + q W ^ n w - : - N "
};
